<mxfile host="app.diagrams.net" agent="Mozilla/5.0 (Windows NT 10.0; Win64; x64) AppleWebKit/537.36 (KHTML, like Gecko) Chrome/128.0.0.0 Safari/537.36" version="24.7.12">
  <diagram name="Page-1" id="PEkZlrDrtJ_jvtdT925m">
    <mxGraphModel dx="1247" dy="633" grid="1" gridSize="10" guides="1" tooltips="1" connect="1" arrows="1" fold="1" page="1" pageScale="1" pageWidth="827" pageHeight="1169" math="0" shadow="0">
      <root>
        <mxCell id="0" />
        <mxCell id="1" parent="0" />
        <mxCell id="dLMPrjUwtsOP9PTlaON--25" value="" style="rounded=1;whiteSpace=wrap;html=1;fillColor=none;dashed=1;dashPattern=8 8;strokeColor=#353B48;" vertex="1" parent="1">
          <mxGeometry x="193" y="80" width="627" height="630" as="geometry" />
        </mxCell>
        <mxCell id="dLMPrjUwtsOP9PTlaON--84" style="edgeStyle=orthogonalEdgeStyle;rounded=0;orthogonalLoop=1;jettySize=auto;html=1;exitX=0.5;exitY=1;exitDx=0;exitDy=0;" edge="1" parent="1" source="dLMPrjUwtsOP9PTlaON--70" target="dLMPrjUwtsOP9PTlaON--53">
          <mxGeometry relative="1" as="geometry" />
        </mxCell>
        <mxCell id="dLMPrjUwtsOP9PTlaON--70" value="" style="rounded=0;whiteSpace=wrap;html=1;dashed=1;" vertex="1" parent="1">
          <mxGeometry x="650" y="430" width="110" height="110" as="geometry" />
        </mxCell>
        <mxCell id="dLMPrjUwtsOP9PTlaON--39" value="" style="rounded=0;whiteSpace=wrap;html=1;dashed=1;" vertex="1" parent="1">
          <mxGeometry x="240" y="160" width="340" height="200" as="geometry" />
        </mxCell>
        <mxCell id="dLMPrjUwtsOP9PTlaON--2" value="OS Kernel" style="swimlane;whiteSpace=wrap;html=1;strokeWidth=2;fontStyle=1;fontSize=14;fillColor=none;strokeColor=#353B48;fontColor=#353b48;verticalAlign=middle;" vertex="1" parent="1">
          <mxGeometry x="230" y="120" width="360" height="560" as="geometry" />
        </mxCell>
        <mxCell id="dLMPrjUwtsOP9PTlaON--3" value="" style="rounded=1;whiteSpace=wrap;html=1;strokeWidth=1;strokeColor=#353B48;" vertex="1" parent="dLMPrjUwtsOP9PTlaON--2">
          <mxGeometry x="28.5" y="133.5" width="303" height="60" as="geometry" />
        </mxCell>
        <mxCell id="dLMPrjUwtsOP9PTlaON--4" value="" style="rounded=1;whiteSpace=wrap;html=1;strokeColor=#353B48;strokeWidth=1;dashed=1;dashPattern=1 2;" vertex="1" parent="dLMPrjUwtsOP9PTlaON--2">
          <mxGeometry x="39.75" y="141" width="45" height="45" as="geometry" />
        </mxCell>
        <mxCell id="dLMPrjUwtsOP9PTlaON--5" value="" style="rounded=1;whiteSpace=wrap;html=1;strokeColor=#353B48;strokeWidth=1;dashed=1;dashPattern=1 2;" vertex="1" parent="dLMPrjUwtsOP9PTlaON--2">
          <mxGeometry x="96.25" y="141" width="45" height="45" as="geometry" />
        </mxCell>
        <mxCell id="dLMPrjUwtsOP9PTlaON--6" value="" style="rounded=1;whiteSpace=wrap;html=1;strokeColor=#353B48;strokeWidth=1;dashed=1;dashPattern=1 2;" vertex="1" parent="dLMPrjUwtsOP9PTlaON--2">
          <mxGeometry x="153.25" y="141" width="45" height="45" as="geometry" />
        </mxCell>
        <mxCell id="dLMPrjUwtsOP9PTlaON--7" value="" style="rounded=1;whiteSpace=wrap;html=1;strokeColor=#353B48;strokeWidth=1;dashed=1;dashPattern=1 2;" vertex="1" parent="dLMPrjUwtsOP9PTlaON--2">
          <mxGeometry x="275.25" y="141" width="45" height="45" as="geometry" />
        </mxCell>
        <mxCell id="dLMPrjUwtsOP9PTlaON--28" value="&lt;pre style=&quot;font-size: 10px;&quot; class=&quot;graf graf--pre&quot;&gt;backlog&lt;/pre&gt;" style="shape=curlyBracket;whiteSpace=wrap;html=1;rounded=1;labelPosition=left;verticalLabelPosition=middle;align=right;verticalAlign=middle;rotation=-90;textDirection=vertical-lr;strokeColor=#353B48;fontSize=10;" vertex="1" parent="dLMPrjUwtsOP9PTlaON--2">
          <mxGeometry x="170" y="69" width="20" height="290" as="geometry" />
        </mxCell>
        <mxCell id="dLMPrjUwtsOP9PTlaON--41" value="Pending Connections&lt;span style=&quot;background-color: initial; font-size: 10px;&quot;&gt;&amp;nbsp;Queue&lt;/span&gt;" style="text;html=1;align=center;verticalAlign=middle;whiteSpace=wrap;rounded=0;fontFamily=Lucida Console;fontSize=10;" vertex="1" parent="dLMPrjUwtsOP9PTlaON--2">
          <mxGeometry x="100" y="111" width="160" height="30" as="geometry" />
        </mxCell>
        <mxCell id="dLMPrjUwtsOP9PTlaON--26" style="edgeStyle=orthogonalEdgeStyle;rounded=0;orthogonalLoop=1;jettySize=auto;html=1;entryX=0;entryY=0.5;entryDx=0;entryDy=0;strokeWidth=1;strokeColor=#353B48;" edge="1" parent="1" source="dLMPrjUwtsOP9PTlaON--35" target="dLMPrjUwtsOP9PTlaON--3">
          <mxGeometry relative="1" as="geometry">
            <mxPoint x="135" y="203" as="sourcePoint" />
            <Array as="points" />
          </mxGeometry>
        </mxCell>
        <mxCell id="dLMPrjUwtsOP9PTlaON--14" value="Client" style="swimlane;whiteSpace=wrap;html=1;strokeWidth=2;fontStyle=1;fontSize=14;fillColor=none;strokeColor=#353B48;fontColor=#353b48;verticalAlign=middle;" vertex="1" parent="1">
          <mxGeometry x="20" y="126" width="130" height="554" as="geometry" />
        </mxCell>
        <mxCell id="dLMPrjUwtsOP9PTlaON--80" style="edgeStyle=orthogonalEdgeStyle;rounded=0;orthogonalLoop=1;jettySize=auto;html=1;entryX=0.5;entryY=0;entryDx=0;entryDy=0;dashed=1;" edge="1" parent="dLMPrjUwtsOP9PTlaON--14" source="dLMPrjUwtsOP9PTlaON--35" target="dLMPrjUwtsOP9PTlaON--71">
          <mxGeometry relative="1" as="geometry" />
        </mxCell>
        <mxCell id="dLMPrjUwtsOP9PTlaON--81" value="block until &lt;br style=&quot;font-size: 10px;&quot;&gt;server accept" style="edgeLabel;html=1;align=center;verticalAlign=middle;resizable=0;points=[];fontFamily=Lucida Console;fontSize=10;" vertex="1" connectable="0" parent="dLMPrjUwtsOP9PTlaON--80">
          <mxGeometry x="-0.188" y="2" relative="1" as="geometry">
            <mxPoint as="offset" />
          </mxGeometry>
        </mxCell>
        <mxCell id="dLMPrjUwtsOP9PTlaON--35" value="&lt;span style=&quot;font-weight: normal;&quot;&gt;Connect()&lt;/span&gt;" style="rounded=0;whiteSpace=wrap;html=1;strokeColor=#353B48;align=center;verticalAlign=middle;fontFamily=Lucida Console;fontSize=13;fontColor=default;fillColor=default;fontStyle=1" vertex="1" parent="dLMPrjUwtsOP9PTlaON--14">
          <mxGeometry x="20" y="144" width="90" height="27" as="geometry" />
        </mxCell>
        <mxCell id="dLMPrjUwtsOP9PTlaON--58" style="edgeStyle=orthogonalEdgeStyle;rounded=0;orthogonalLoop=1;jettySize=auto;html=1;exitX=0.5;exitY=1;exitDx=0;exitDy=0;" edge="1" parent="dLMPrjUwtsOP9PTlaON--14" source="dLMPrjUwtsOP9PTlaON--48" target="dLMPrjUwtsOP9PTlaON--35">
          <mxGeometry relative="1" as="geometry" />
        </mxCell>
        <mxCell id="dLMPrjUwtsOP9PTlaON--48" value="&lt;span style=&quot;font-weight: normal;&quot;&gt;Socket()&lt;/span&gt;" style="rounded=0;whiteSpace=wrap;html=1;strokeColor=#353B48;align=center;verticalAlign=middle;fontFamily=Lucida Console;fontSize=13;fontColor=default;fillColor=default;fontStyle=1" vertex="1" parent="dLMPrjUwtsOP9PTlaON--14">
          <mxGeometry x="20" y="34" width="90" height="27" as="geometry" />
        </mxCell>
        <mxCell id="dLMPrjUwtsOP9PTlaON--86" style="edgeStyle=orthogonalEdgeStyle;rounded=0;orthogonalLoop=1;jettySize=auto;html=1;entryX=0.5;entryY=0;entryDx=0;entryDy=0;" edge="1" parent="dLMPrjUwtsOP9PTlaON--14" source="dLMPrjUwtsOP9PTlaON--71" target="dLMPrjUwtsOP9PTlaON--82">
          <mxGeometry relative="1" as="geometry" />
        </mxCell>
        <mxCell id="dLMPrjUwtsOP9PTlaON--71" value="" style="rounded=0;whiteSpace=wrap;html=1;dashed=1;" vertex="1" parent="dLMPrjUwtsOP9PTlaON--14">
          <mxGeometry x="10" y="304" width="110" height="110" as="geometry" />
        </mxCell>
        <mxCell id="dLMPrjUwtsOP9PTlaON--72" value="&lt;span style=&quot;font-weight: normal;&quot;&gt;Read()&lt;/span&gt;" style="rounded=0;whiteSpace=wrap;html=1;strokeColor=#353B48;align=center;verticalAlign=middle;fontFamily=Lucida Console;fontSize=13;fontColor=default;fillColor=default;fontStyle=1" vertex="1" parent="dLMPrjUwtsOP9PTlaON--14">
          <mxGeometry x="20" y="364" width="90" height="27" as="geometry" />
        </mxCell>
        <mxCell id="dLMPrjUwtsOP9PTlaON--74" value="&lt;span style=&quot;font-weight: normal;&quot;&gt;Send()&lt;/span&gt;" style="rounded=0;whiteSpace=wrap;html=1;strokeColor=#353B48;align=center;verticalAlign=middle;fontFamily=Lucida Console;fontSize=13;fontColor=default;fillColor=default;fontStyle=1" vertex="1" parent="dLMPrjUwtsOP9PTlaON--14">
          <mxGeometry x="20" y="325.5" width="90" height="27" as="geometry" />
        </mxCell>
        <mxCell id="dLMPrjUwtsOP9PTlaON--82" value="&lt;span style=&quot;font-weight: normal;&quot;&gt;Close()&lt;/span&gt;" style="rounded=0;whiteSpace=wrap;html=1;strokeColor=#353B48;align=center;verticalAlign=middle;fontFamily=Lucida Console;fontSize=13;fontColor=default;fillColor=default;fontStyle=1" vertex="1" parent="dLMPrjUwtsOP9PTlaON--14">
          <mxGeometry x="20" y="494" width="90" height="27" as="geometry" />
        </mxCell>
        <mxCell id="dLMPrjUwtsOP9PTlaON--20" value="Application" style="swimlane;whiteSpace=wrap;html=1;strokeWidth=2;fontStyle=1;fontSize=14;fillColor=none;strokeColor=#353B48;fontColor=#353b48;verticalAlign=middle;" vertex="1" parent="1">
          <mxGeometry x="640" y="120" width="130" height="560" as="geometry" />
        </mxCell>
        <mxCell id="dLMPrjUwtsOP9PTlaON--34" value="&lt;span style=&quot;font-weight: normal;&quot;&gt;Accept()&lt;/span&gt;" style="rounded=0;whiteSpace=wrap;html=1;strokeColor=#353B48;align=center;verticalAlign=middle;fontFamily=Lucida Console;fontSize=13;fontColor=default;fillColor=default;fontStyle=1" vertex="1" parent="dLMPrjUwtsOP9PTlaON--20">
          <mxGeometry x="20" y="220" width="90" height="27" as="geometry" />
        </mxCell>
        <mxCell id="dLMPrjUwtsOP9PTlaON--42" value="&lt;span style=&quot;font-weight: normal;&quot;&gt;Socket()&lt;/span&gt;" style="rounded=0;whiteSpace=wrap;html=1;strokeColor=#353B48;align=center;verticalAlign=middle;fontFamily=Lucida Console;fontSize=13;fontColor=default;fillColor=default;fontStyle=1" vertex="1" parent="dLMPrjUwtsOP9PTlaON--20">
          <mxGeometry x="20" y="33" width="90" height="27" as="geometry" />
        </mxCell>
        <mxCell id="dLMPrjUwtsOP9PTlaON--57" style="edgeStyle=orthogonalEdgeStyle;rounded=0;orthogonalLoop=1;jettySize=auto;html=1;entryX=0.5;entryY=0;entryDx=0;entryDy=0;dashed=1;" edge="1" parent="dLMPrjUwtsOP9PTlaON--20" source="dLMPrjUwtsOP9PTlaON--46" target="dLMPrjUwtsOP9PTlaON--34">
          <mxGeometry relative="1" as="geometry" />
        </mxCell>
        <mxCell id="dLMPrjUwtsOP9PTlaON--60" value="block until &lt;br&gt;client connect" style="edgeLabel;html=1;align=center;verticalAlign=middle;resizable=0;points=[];fontSize=10;fontFamily=Lucida Console;" vertex="1" connectable="0" parent="dLMPrjUwtsOP9PTlaON--57">
          <mxGeometry x="-0.3521" y="3" relative="1" as="geometry">
            <mxPoint x="-8" y="9" as="offset" />
          </mxGeometry>
        </mxCell>
        <mxCell id="dLMPrjUwtsOP9PTlaON--46" value="&lt;span style=&quot;font-weight: normal;&quot;&gt;Listen()&lt;/span&gt;" style="rounded=0;whiteSpace=wrap;html=1;strokeColor=#353B48;align=center;verticalAlign=middle;fontFamily=Lucida Console;fontSize=13;fontColor=default;fillColor=default;fontStyle=1" vertex="1" parent="dLMPrjUwtsOP9PTlaON--20">
          <mxGeometry x="20" y="130" width="90" height="27" as="geometry" />
        </mxCell>
        <mxCell id="dLMPrjUwtsOP9PTlaON--50" value="&lt;span style=&quot;font-weight: normal;&quot;&gt;Read()&lt;/span&gt;" style="rounded=0;whiteSpace=wrap;html=1;strokeColor=#353B48;align=center;verticalAlign=middle;fontFamily=Lucida Console;fontSize=13;fontColor=default;fillColor=default;fontStyle=1" vertex="1" parent="dLMPrjUwtsOP9PTlaON--20">
          <mxGeometry x="20" y="331.5" width="90" height="27" as="geometry" />
        </mxCell>
        <mxCell id="dLMPrjUwtsOP9PTlaON--52" value="&lt;span style=&quot;font-weight: normal;&quot;&gt;Send()&lt;/span&gt;" style="rounded=0;whiteSpace=wrap;html=1;strokeColor=#353B48;align=center;verticalAlign=middle;fontFamily=Lucida Console;fontSize=13;fontColor=default;fillColor=default;fontStyle=1" vertex="1" parent="dLMPrjUwtsOP9PTlaON--20">
          <mxGeometry x="20" y="370" width="90" height="27" as="geometry" />
        </mxCell>
        <mxCell id="dLMPrjUwtsOP9PTlaON--53" value="&lt;span style=&quot;font-weight: normal;&quot;&gt;Close()&lt;/span&gt;" style="rounded=0;whiteSpace=wrap;html=1;strokeColor=#353B48;align=center;verticalAlign=middle;fontFamily=Lucida Console;fontSize=13;fontColor=default;fillColor=default;fontStyle=1" vertex="1" parent="dLMPrjUwtsOP9PTlaON--20">
          <mxGeometry x="20" y="510" width="90" height="27" as="geometry" />
        </mxCell>
        <mxCell id="dLMPrjUwtsOP9PTlaON--23" style="edgeStyle=orthogonalEdgeStyle;rounded=0;orthogonalLoop=1;jettySize=auto;html=1;exitX=1;exitY=0.5;exitDx=0;exitDy=0;entryX=0;entryY=0.5;entryDx=0;entryDy=0;strokeWidth=1;endArrow=block;endFill=1;endSize=6;startSize=6;jumpSize=6;strokeColor=#353B48;" edge="1" parent="1" source="dLMPrjUwtsOP9PTlaON--3" target="dLMPrjUwtsOP9PTlaON--34">
          <mxGeometry relative="1" as="geometry">
            <mxPoint x="690" y="203.5" as="targetPoint" />
          </mxGeometry>
        </mxCell>
        <mxCell id="dLMPrjUwtsOP9PTlaON--40" value="&lt;span style=&quot;font-size: 12px;&quot;&gt;Listener Socket Descriptor&lt;/span&gt;" style="rounded=0;whiteSpace=wrap;html=1;strokeColor=#353B48;align=center;verticalAlign=middle;fontFamily=Lucida Console;fontSize=12;fontColor=default;fillColor=default;fontStyle=0" vertex="1" parent="1">
          <mxGeometry x="260" y="180" width="300" height="27" as="geometry" />
        </mxCell>
        <mxCell id="dLMPrjUwtsOP9PTlaON--56" style="edgeStyle=orthogonalEdgeStyle;rounded=0;orthogonalLoop=1;jettySize=auto;html=1;exitX=0.5;exitY=1;exitDx=0;exitDy=0;entryX=0.5;entryY=0;entryDx=0;entryDy=0;" edge="1" parent="1" source="dLMPrjUwtsOP9PTlaON--45" target="dLMPrjUwtsOP9PTlaON--46">
          <mxGeometry relative="1" as="geometry" />
        </mxCell>
        <mxCell id="dLMPrjUwtsOP9PTlaON--45" value="&lt;span style=&quot;font-weight: normal;&quot;&gt;Bind()&lt;/span&gt;" style="rounded=0;whiteSpace=wrap;html=1;strokeColor=#353B48;align=center;verticalAlign=middle;fontFamily=Lucida Console;fontSize=13;fontColor=default;fillColor=default;fontStyle=1" vertex="1" parent="1">
          <mxGeometry x="660" y="200" width="90" height="27" as="geometry" />
        </mxCell>
        <mxCell id="dLMPrjUwtsOP9PTlaON--55" style="edgeStyle=orthogonalEdgeStyle;rounded=0;orthogonalLoop=1;jettySize=auto;html=1;exitX=0.5;exitY=1;exitDx=0;exitDy=0;entryX=0.5;entryY=0;entryDx=0;entryDy=0;" edge="1" parent="1" source="dLMPrjUwtsOP9PTlaON--42" target="dLMPrjUwtsOP9PTlaON--45">
          <mxGeometry relative="1" as="geometry" />
        </mxCell>
        <mxCell id="dLMPrjUwtsOP9PTlaON--61" value="" style="rounded=0;whiteSpace=wrap;html=1;dashed=1;" vertex="1" parent="1">
          <mxGeometry x="240" y="400" width="340" height="130" as="geometry" />
        </mxCell>
        <mxCell id="dLMPrjUwtsOP9PTlaON--65" value="&lt;span style=&quot;font-size: 12px;&quot;&gt;Accept Socket Descriptor&lt;/span&gt;" style="rounded=0;whiteSpace=wrap;html=1;strokeColor=#353B48;align=center;verticalAlign=middle;fontFamily=Lucida Console;fontSize=12;fontColor=default;fillColor=default;fontStyle=0" vertex="1" parent="1">
          <mxGeometry x="264" y="410" width="300" height="27" as="geometry" />
        </mxCell>
        <mxCell id="dLMPrjUwtsOP9PTlaON--68" style="edgeStyle=orthogonalEdgeStyle;rounded=0;orthogonalLoop=1;jettySize=auto;html=1;entryX=0;entryY=0.5;entryDx=0;entryDy=0;" edge="1" parent="1" source="dLMPrjUwtsOP9PTlaON--66" target="dLMPrjUwtsOP9PTlaON--50">
          <mxGeometry relative="1" as="geometry" />
        </mxCell>
        <mxCell id="dLMPrjUwtsOP9PTlaON--66" value="Receive Buffer" style="rounded=0;whiteSpace=wrap;html=1;strokeColor=#353B48;align=center;verticalAlign=middle;fontFamily=Lucida Console;fontSize=12;fontColor=default;fillColor=default;fontStyle=0;dashed=1;dashPattern=1 2;" vertex="1" parent="1">
          <mxGeometry x="264" y="451.5" width="300" height="27" as="geometry" />
        </mxCell>
        <mxCell id="dLMPrjUwtsOP9PTlaON--77" style="edgeStyle=orthogonalEdgeStyle;rounded=0;orthogonalLoop=1;jettySize=auto;html=1;entryX=1;entryY=0.5;entryDx=0;entryDy=0;" edge="1" parent="1" source="dLMPrjUwtsOP9PTlaON--67" target="dLMPrjUwtsOP9PTlaON--72">
          <mxGeometry relative="1" as="geometry" />
        </mxCell>
        <mxCell id="dLMPrjUwtsOP9PTlaON--67" value="&lt;span style=&quot;font-size: 12px;&quot;&gt;Send Buffer&lt;/span&gt;" style="rounded=0;whiteSpace=wrap;html=1;strokeColor=#353B48;align=center;verticalAlign=middle;fontFamily=Lucida Console;fontSize=12;fontColor=default;fillColor=default;fontStyle=0;dashed=1;dashPattern=1 2;" vertex="1" parent="1">
          <mxGeometry x="264" y="490" width="300" height="27" as="geometry" />
        </mxCell>
        <mxCell id="dLMPrjUwtsOP9PTlaON--69" style="edgeStyle=orthogonalEdgeStyle;rounded=0;orthogonalLoop=1;jettySize=auto;html=1;exitX=0;exitY=0.5;exitDx=0;exitDy=0;entryX=1;entryY=0.5;entryDx=0;entryDy=0;" edge="1" parent="1" source="dLMPrjUwtsOP9PTlaON--52" target="dLMPrjUwtsOP9PTlaON--67">
          <mxGeometry relative="1" as="geometry" />
        </mxCell>
        <mxCell id="dLMPrjUwtsOP9PTlaON--76" style="edgeStyle=orthogonalEdgeStyle;rounded=0;orthogonalLoop=1;jettySize=auto;html=1;exitX=1;exitY=0.5;exitDx=0;exitDy=0;" edge="1" parent="1" source="dLMPrjUwtsOP9PTlaON--74" target="dLMPrjUwtsOP9PTlaON--66">
          <mxGeometry relative="1" as="geometry" />
        </mxCell>
        <mxCell id="dLMPrjUwtsOP9PTlaON--85" style="edgeStyle=orthogonalEdgeStyle;rounded=0;orthogonalLoop=1;jettySize=auto;html=1;exitX=0.5;exitY=1;exitDx=0;exitDy=0;" edge="1" parent="1" source="dLMPrjUwtsOP9PTlaON--34" target="dLMPrjUwtsOP9PTlaON--70">
          <mxGeometry relative="1" as="geometry" />
        </mxCell>
        <mxCell id="dLMPrjUwtsOP9PTlaON--87" value="Server" style="text;html=1;align=center;verticalAlign=middle;whiteSpace=wrap;rounded=0;fontStyle=1;fontSize=14;" vertex="1" parent="1">
          <mxGeometry x="460" y="80" width="60" height="30" as="geometry" />
        </mxCell>
      </root>
    </mxGraphModel>
  </diagram>
</mxfile>
